<?xml version="1.0" standalone="no"?>
<!DOCTYPE svg PUBLIC "-//W3C//DTD SVG 20010904//EN"
 "http://www.w3.org/TR/2001/REC-SVG-20010904/DTD/svg10.dtd">
<svg version="1.0" xmlns="http://www.w3.org/2000/svg"
 width="1500.000000pt" height="1500.000000pt" viewBox="0 0 1500.000000 1500.000000"
 preserveAspectRatio="xMidYMid meet">
<metadata>
Created by potrace 1.14, written by Peter Selinger 2001-2017
</metadata>
<g transform="translate(0.000000,1500.000000) scale(0.100000,-0.100000)"
fill="#000000" stroke="none">
<path d="M8430 13324 c0 -7 -82 -11 -249 -13 -138 -1 -260 -4 -273 -8 -13 -3
-62 -6 -110 -7 -48 -1 -90 -5 -94 -9 -4 -3 -16 -2 -27 4 -14 8 -18 8 -13 0 4
-6 4 -11 -1 -12 -4 0 -30 -2 -58 -4 -61 -5 -76 -8 -94 -19 -10 -7 -12 -5 -7 5
5 9 2 8 -6 -2 -9 -11 -21 -13 -40 -8 -16 4 -28 4 -28 1 0 -4 -19 -7 -42 -6
-24 0 -48 -3 -53 -7 -6 -4 -39 -9 -73 -11 -34 -2 -62 -5 -62 -8 0 -3 -11 -7
-26 -8 -14 -1 -33 -6 -42 -10 -9 -5 -29 -8 -44 -7 -16 1 -28 -2 -28 -8 0 -5
-7 -4 -15 3 -12 10 -15 10 -15 0 0 -7 -7 -10 -15 -6 -8 3 -15 0 -15 -6 0 -7
-4 -7 -13 0 -8 7 -18 6 -31 -4 -10 -7 -23 -11 -27 -8 -5 3 -9 -1 -9 -8 0 -9
-3 -9 -10 2 -5 8 -10 10 -10 4 0 -14 -31 -14 -48 -1 -9 7 -11 5 -5 -8 5 -14 3
-17 -9 -13 -9 4 -21 1 -28 -5 -10 -9 -11 -9 -5 1 6 12 3 12 -15 2 -12 -6 -28
-9 -36 -6 -8 3 -14 2 -14 -3 0 -8 -9 -10 -55 -14 -15 -1 -25 -8 -25 -17 0 -13
-1 -13 -10 0 -5 8 -10 10 -10 4 0 -5 -13 -9 -30 -8 -16 1 -30 -2 -30 -8 0 -5
-4 -7 -10 -3 -5 3 -26 -1 -47 -10 -20 -9 -43 -13 -50 -10 -8 2 -11 0 -8 -5 4
-6 -10 -10 -34 -10 -23 0 -41 -5 -41 -10 0 -6 -6 -10 -12 -9 -25 3 -39 -1 -34
-10 3 -4 -6 -6 -21 -3 -19 4 -24 2 -18 -8 6 -9 3 -10 -14 -1 -16 9 -21 9 -19
0 3 -10 -25 -18 -74 -22 -9 -1 -14 -5 -12 -9 4 -7 -10 -10 -32 -7 -4 0 -11 -5
-15 -13 -7 -10 -9 -10 -9 2 0 11 -2 12 -8 2 -8 -11 -34 -21 -72 -25 -8 -1 -18
-6 -21 -10 -3 -5 -12 -9 -20 -10 -8 -2 -18 -5 -24 -8 -5 -4 -20 -5 -32 -4 -13
1 -19 -3 -16 -11 3 -9 -2 -12 -16 -9 -11 2 -23 -1 -26 -6 -4 -5 -11 -7 -16 -4
-5 4 -9 2 -9 -3 0 -6 -7 -13 -16 -16 -10 -4 -13 -2 -8 6 4 7 -8 1 -26 -12 -18
-13 -30 -19 -26 -12 5 8 2 10 -8 6 -9 -3 -16 -11 -16 -16 0 -6 -11 -8 -25 -6
-14 3 -23 1 -22 -6 1 -5 -3 -10 -10 -11 -6 0 -15 -3 -19 -7 -4 -5 -17 -8 -29
-8 -12 0 -25 -3 -29 -7 -4 -5 -11 -8 -14 -8 -4 -1 -17 -6 -29 -13 -13 -7 -23
-10 -23 -6 0 3 -8 0 -17 -7 -14 -12 -15 -12 -9 0 6 9 1 8 -16 -3 -14 -9 -28
-13 -31 -9 -4 3 -7 1 -7 -6 0 -7 -4 -9 -10 -6 -5 3 -10 2 -10 -4 0 -6 -7 -8
-15 -5 -8 4 -15 1 -15 -5 0 -6 -6 -8 -14 -5 -8 3 -17 0 -21 -5 -3 -6 -11 -9
-16 -5 -5 3 -8 0 -7 -8 2 -7 -5 -12 -14 -12 -10 1 -15 -2 -12 -7 4 -8 0 -10
-21 -9 -3 0 -15 -9 -27 -20 -12 -11 -28 -20 -35 -20 -7 0 -13 -5 -13 -10 0 -6
-3 -9 -7 -8 -11 4 -73 -26 -73 -34 0 -4 -7 -4 -17 -1 -10 4 -14 2 -10 -4 6 -9
-5 -15 -41 -23 -4 -1 -11 -8 -15 -16 -4 -8 -19 -14 -32 -14 -13 0 -27 -5 -30
-11 -4 -6 -14 -8 -22 -4 -13 4 -14 3 -4 -9 10 -12 8 -14 -13 -12 -14 2 -23 -1
-20 -5 5 -8 -10 -13 -28 -10 -5 0 -8 -4 -8 -10 0 -5 -4 -7 -10 -4 -5 3 -10 1
-10 -5 0 -6 -4 -9 -9 -6 -5 3 -11 -1 -15 -9 -3 -8 -12 -15 -21 -15 -8 0 -15
-6 -15 -12 0 -9 -4 -8 -10 2 -8 13 -10 12 -10 -3 0 -10 -4 -16 -9 -13 -4 3
-22 -5 -40 -18 -18 -13 -46 -30 -62 -36 -16 -7 -29 -16 -29 -21 0 -5 -7 -9
-15 -9 -8 0 -15 -4 -15 -10 0 -5 -7 -10 -15 -10 -8 0 -15 -5 -15 -11 0 -5 -4
-7 -10 -4 -6 3 -10 1 -10 -5 0 -6 -4 -9 -9 -6 -5 3 -14 -1 -21 -9 -7 -8 -19
-15 -27 -15 -7 0 -16 -7 -19 -15 -4 -8 -13 -15 -21 -15 -8 0 -11 -4 -8 -10 3
-5 -1 -10 -11 -10 -9 0 -23 -8 -31 -17 -8 -10 -11 -12 -8 -5 4 7 -11 1 -33
-15 -22 -15 -37 -32 -34 -37 2 -5 -1 -7 -9 -4 -12 4 -30 -7 -64 -39 -11 -10
-14 -10 -18 0 -3 7 -6 5 -6 -5 -1 -10 -5 -18 -10 -18 -4 0 -21 -12 -36 -27
-16 -16 -25 -21 -20 -13 4 8 -5 3 -19 -13 -15 -15 -32 -24 -38 -21 -6 4 -8 3
-5 -3 4 -5 -5 -16 -18 -23 -14 -7 -25 -17 -25 -22 0 -4 -9 -8 -21 -8 -11 0
-18 -4 -15 -9 3 -4 -6 -13 -19 -19 -14 -7 -25 -16 -25 -22 0 -5 -7 -10 -15
-10 -8 0 -15 -4 -15 -10 0 -5 -7 -10 -17 -10 -9 0 -14 -3 -10 -6 11 -11 -27
-41 -40 -32 -9 7 -11 4 -8 -11 2 -14 -1 -18 -11 -14 -8 3 -14 -1 -14 -11 0 -9
-3 -15 -7 -15 -20 3 -34 -2 -28 -11 3 -5 2 -10 -4 -10 -5 0 -27 -16 -47 -36
-21 -19 -43 -36 -48 -37 -6 -1 -15 -11 -21 -22 -6 -11 -17 -20 -25 -20 -8 0
-15 -7 -15 -15 -1 -8 -6 -14 -13 -13 -7 2 -12 -4 -12 -12 0 -8 -4 -15 -9 -15
-4 0 -20 -11 -35 -25 -15 -14 -32 -25 -37 -25 -6 0 -7 -4 -4 -10 3 -5 -1 -10
-9 -10 -8 0 -18 -9 -21 -21 -4 -11 -9 -18 -12 -15 -7 7 -63 -50 -63 -64 0 -5
-6 -10 -14 -10 -7 0 -19 -13 -26 -30 -7 -16 -17 -28 -24 -27 -6 1 -10 -4 -9
-10 2 -7 0 -12 -5 -11 -9 3 -94 -80 -116 -114 -10 -15 -26 -30 -37 -33 -11 -4
-17 -10 -14 -15 3 -5 -4 -14 -16 -20 -11 -7 -18 -14 -15 -17 9 -9 -24 -43 -41
-43 -8 0 -11 -5 -7 -12 5 -10 4 -10 -5 -2 -16 15 -21 66 -10 111 6 21 11 59
12 85 1 27 6 48 11 48 5 0 6 3 3 7 -4 3 -2 12 4 19 6 7 6 14 0 18 -10 6 -3 46
8 46 3 0 6 19 5 43 0 23 2 46 5 52 3 5 7 28 9 50 2 22 7 44 11 50 4 5 7 25 7
43 -1 17 1 32 4 32 6 0 11 26 13 73 1 15 6 27 11 27 5 0 6 3 3 7 -4 3 -2 12 4
20 9 10 8 13 -2 13 -11 0 -11 2 -1 9 7 4 15 21 17 37 2 16 4 31 5 34 2 3 2 8
1 13 0 4 3 7 8 7 5 0 8 11 5 25 -2 14 0 25 6 25 5 0 9 3 9 8 -4 21 2 43 10 38
4 -3 7 5 6 18 -2 14 3 35 9 48 7 13 12 33 11 45 -1 12 2 20 6 17 4 -2 10 14
14 36 4 22 11 40 16 40 6 0 7 5 4 10 -3 6 -1 10 5 10 6 0 9 4 6 9 -6 9 16 61
26 61 4 0 5 9 3 20 -2 11 1 20 7 20 5 0 7 7 4 16 -3 8 -2 12 4 9 6 -3 10 -1
10 4 0 21 2 26 23 55 12 16 16 26 9 22 -8 -5 -10 -2 -6 8 3 9 9 14 14 11 4 -2
6 7 5 20 -2 14 2 23 8 22 7 -1 11 6 9 17 -2 10 1 15 7 11 7 -4 8 0 4 11 -5 13
-2 16 9 12 9 -4 15 -1 15 5 -1 39 4 49 21 43 16 -6 16 -5 -1 8 -10 8 -13 16
-7 18 5 1 0 9 -12 17 -13 7 -20 10 -16 6 8 -8 -53 -55 -71 -55 -5 0 -21 -13
-34 -30 -14 -16 -30 -30 -36 -30 -5 0 -22 -13 -37 -29 -15 -17 -32 -28 -36
-25 -5 3 -7 1 -6 -4 3 -9 -45 -58 -93 -94 -13 -10 -20 -18 -17 -18 4 0 -5 -13
-20 -28 -15 -15 -30 -26 -35 -24 -4 2 -7 -4 -7 -12 0 -9 -6 -16 -14 -16 -13 0
-30 -34 -27 -53 1 -5 -2 -6 -7 -3 -5 3 -19 -6 -30 -19 -12 -14 -19 -25 -15
-25 3 0 -6 -11 -21 -25 -15 -14 -24 -25 -20 -25 4 0 -2 -9 -14 -20 -12 -12
-22 -28 -22 -36 0 -8 -4 -12 -10 -9 -5 3 -10 -1 -10 -9 0 -9 -5 -16 -11 -16
-5 0 -8 -4 -5 -9 3 -5 -1 -11 -9 -15 -8 -3 -15 -13 -15 -21 0 -9 -5 -13 -11
-10 -6 4 -9 0 -7 -11 2 -11 -2 -18 -9 -17 -7 2 -10 -4 -7 -12 4 -8 1 -15 -6
-15 -6 0 -8 -5 -5 -10 3 -6 -1 -13 -9 -16 -9 -3 -13 -10 -10 -15 3 -5 0 -9 -7
-9 -7 0 -9 -3 -6 -7 4 -3 -1 -12 -11 -20 -11 -10 -12 -12 -2 -8 10 4 9 2 -2
-8 -10 -8 -18 -19 -18 -26 0 -6 -5 -11 -11 -11 -8 0 -8 -4 0 -14 9 -11 8 -14
-6 -12 -10 0 -17 -5 -15 -13 1 -7 -3 -19 -9 -27 -6 -8 -8 -14 -3 -14 5 0 3 -4
-4 -9 -7 -4 -14 -17 -15 -28 0 -13 -6 -19 -14 -16 -7 3 -13 1 -13 -5 0 -6 6
-13 13 -15 10 -4 10 -6 0 -6 -7 -1 -13 -8 -13 -16 0 -8 -4 -15 -10 -15 -5 0
-13 -18 -16 -40 -4 -22 -10 -37 -15 -34 -8 5 -13 -10 -10 -28 0 -5 -4 -8 -10
-8 -5 0 -8 -4 -5 -9 3 -5 -2 -26 -11 -47 -9 -22 -18 -42 -19 -46 -1 -5 -3 -10
-4 -13 -1 -3 -4 -9 -5 -15 -1 -5 -4 -12 -5 -15 -1 -3 -4 -9 -5 -15 -1 -5 -4
-13 -5 -17 -1 -5 -2 -12 -1 -17 1 -4 -3 -14 -10 -22 -6 -8 -9 -23 -6 -33 3
-13 0 -18 -8 -15 -9 4 -11 -3 -7 -22 3 -17 1 -25 -6 -20 -6 3 -9 -1 -7 -11 1
-10 -4 -30 -11 -44 -7 -15 -10 -29 -7 -32 3 -4 1 -12 -5 -20 -6 -7 -12 -30
-14 -50 -1 -20 -7 -37 -13 -37 -5 0 -4 -4 4 -9 11 -7 10 -11 -5 -20 -11 -6
-13 -11 -6 -11 8 0 10 -5 5 -12 -9 -15 -13 -33 -16 -68 -1 -14 -6 -31 -10 -37
-5 -8 -3 -13 4 -13 7 0 4 -7 -7 -15 -13 -10 -14 -14 -5 -15 10 0 11 -3 2 -13
-6 -8 -8 -17 -4 -20 3 -4 0 -7 -8 -7 -11 0 -11 -2 1 -10 8 -5 10 -10 4 -10 -6
0 -11 -12 -11 -27 0 -16 -4 -37 -8 -47 -7 -15 -5 -17 6 -11 12 7 12 6 1 -7 -7
-9 -15 -26 -17 -38 -2 -12 -7 -31 -11 -42 -5 -16 -3 -19 7 -12 11 6 12 5 2 -8
-8 -9 -14 -50 -15 -102 -1 -48 -5 -89 -10 -92 -5 -3 -6 -10 -2 -15 3 -6 8 -24
11 -41 3 -23 1 -28 -9 -23 -7 4 -2 -2 11 -13 16 -13 22 -25 18 -36 -4 -11 -3
-15 4 -11 6 4 9 0 7 -8 -2 -9 6 -23 17 -32 11 -9 13 -13 6 -9 -9 4 -5 -6 8
-25 18 -25 20 -35 11 -46 -6 -8 -9 -19 -5 -25 3 -5 2 -10 -4 -10 -6 0 -7 -7
-4 -17 4 -10 2 -14 -5 -9 -10 6 -28 -30 -24 -47 1 -5 -2 -6 -7 -3 -5 4 -17 -4
-26 -16 -16 -22 -17 -22 -11 -2 5 15 1 24 -9 28 -8 3 -15 10 -15 16 0 6 -7 18
-15 27 -9 8 -19 28 -22 44 -3 16 -9 26 -14 23 -5 -3 -9 4 -9 16 0 11 -7 23
-15 26 -8 4 -12 10 -9 15 3 5 0 9 -6 9 -6 0 -8 5 -5 10 3 6 1 10 -5 10 -6 0
-9 4 -5 10 3 5 -3 18 -14 29 -11 11 -17 22 -14 25 4 3 -3 14 -15 24 -12 11
-19 22 -15 26 3 3 1 6 -5 6 -7 0 -12 7 -12 15 0 8 -4 15 -9 15 -5 0 -11 9 -14
21 -3 12 -10 18 -16 14 -7 -4 -8 0 -4 11 4 11 3 15 -5 10 -6 -4 -12 3 -14 16
-2 13 -9 22 -15 21 -7 -2 -10 4 -7 12 4 8 -1 17 -10 21 -9 3 -14 10 -11 14 2
4 -5 19 -18 32 -38 44 -57 68 -52 68 7 0 -13 24 -37 47 -9 9 -15 20 -12 25 3
4 0 8 -6 8 -6 0 -9 4 -5 9 3 5 -4 12 -15 16 -11 3 -19 9 -18 13 4 13 -34 62
-43 56 -5 -3 -9 0 -9 5 0 21 -3 26 -29 48 -14 13 -23 23 -19 23 4 0 -25 34
-66 75 -40 41 -71 77 -68 80 5 5 -15 9 -31 6 -5 -1 -6 3 -2 9 3 5 -1 13 -9 16
-9 3 -13 10 -10 15 3 5 -2 9 -10 9 -9 0 -16 5 -16 11 0 5 -5 7 -10 4 -6 -4
-10 -3 -9 2 3 17 -1 36 -7 31 -3 -3 -26 14 -51 38 -24 24 -49 44 -55 44 -5 0
-6 5 -3 10 3 6 1 10 -4 10 -10 0 -36 19 -66 48 -8 6 -16 12 -20 12 -13 0 -34
28 -27 35 4 5 2 5 -5 1 -7 -4 -21 2 -33 14 -11 11 -20 18 -20 15 0 -3 -14 8
-31 25 -18 16 -38 30 -45 30 -8 0 -14 4 -14 9 0 5 -13 14 -30 21 -16 7 -30 16
-30 21 0 5 -9 9 -21 9 -11 0 -17 5 -14 10 3 6 -1 10 -9 10 -9 0 -16 5 -16 11
0 5 -4 7 -10 4 -5 -3 -10 -1 -10 5 0 6 -4 8 -10 5 -5 -3 -10 -1 -10 5 0 6 -5
8 -10 5 -6 -3 -13 1 -16 10 -4 9 -13 14 -20 11 -8 -3 -14 -2 -14 2 0 4 -9 13
-21 20 -12 8 -18 9 -15 3 4 -7 1 -9 -8 -5 -8 3 -17 12 -20 20 -3 9 -10 12 -16
9 -5 -3 -10 -2 -10 4 0 6 -7 8 -15 5 -8 -4 -15 -1 -15 6 0 6 -5 8 -10 5 -6 -3
-23 3 -39 14 -16 12 -34 21 -39 21 -6 0 -23 5 -39 12 -15 6 -34 10 -40 9 -7
-1 -13 3 -13 9 0 5 -10 10 -23 10 -13 0 -28 5 -35 12 -7 7 -12 9 -12 5 0 -4
-10 -2 -22 4 -20 11 -31 13 -76 18 -7 0 -10 6 -6 12 5 8 1 8 -14 0 -14 -7 -23
-8 -27 -1 -4 6 -11 8 -16 5 -5 -4 -9 -2 -9 3 0 5 -18 8 -39 8 -22 -1 -37 2
-35 6 5 7 -27 13 -48 9 -5 0 -8 4 -8 9 0 7 -6 7 -18 1 -13 -7 -23 -6 -30 1 -9
9 -12 9 -12 0 0 -7 -7 -12 -15 -12 -11 0 -8 -8 12 -28 15 -16 31 -27 36 -25 4
3 10 -3 13 -11 3 -9 13 -16 21 -16 8 0 11 -4 8 -10 -3 -5 1 -10 9 -10 8 0 18
-9 21 -20 4 -11 10 -18 15 -15 4 3 10 -2 14 -10 3 -8 17 -20 31 -27 14 -6 25
-15 25 -20 0 -5 10 -19 21 -31 12 -12 18 -15 13 -7 -4 8 13 -5 38 -30 25 -25
44 -48 41 -52 -2 -5 3 -8 11 -8 9 0 16 -5 16 -11 0 -5 4 -7 10 -4 6 3 7 -1 4
-9 -3 -9 -1 -16 6 -16 14 0 34 -19 43 -42 3 -10 13 -18 22 -18 8 0 15 -4 15
-10 0 -13 43 -56 53 -52 4 1 7 -2 7 -7 0 -16 88 -100 96 -93 5 4 2 -2 -6 -12
-8 -11 -10 -18 -5 -15 6 3 20 -5 32 -18 12 -13 20 -23 18 -23 -3 0 5 -10 18
-22 12 -13 26 -22 30 -20 5 1 6 -2 2 -8 -3 -5 -1 -10 4 -10 6 0 11 -5 11 -11
0 -6 14 -24 31 -40 17 -16 28 -29 24 -29 -4 0 4 -10 19 -21 15 -12 25 -28 22
-35 -3 -8 -1 -14 5 -14 15 0 39 -26 32 -34 -4 -3 -2 -6 4 -6 12 0 46 -49 46
-66 0 -7 6 -10 13 -7 6 2 15 -1 20 -8 4 -7 3 -10 -3 -6 -5 3 -10 0 -10 -8 0
-8 2 -13 5 -10 9 9 41 -16 36 -29 -3 -7 2 -16 11 -20 10 -3 15 -12 11 -21 -3
-8 0 -14 7 -12 7 1 11 -4 9 -10 -1 -7 2 -13 8 -13 5 0 10 -7 10 -16 0 -9 5
-12 12 -8 8 5 9 2 5 -9 -4 -12 -1 -17 11 -17 15 0 15 -2 2 -10 -13 -8 -13 -10
1 -10 9 0 19 -9 22 -21 3 -12 10 -18 15 -15 6 4 8 -3 4 -16 -3 -14 -2 -19 6
-14 7 4 13 2 13 -3 1 -6 2 -17 3 -23 1 -7 7 -12 13 -11 7 2 10 -6 8 -17 -3
-13 2 -20 13 -21 11 0 13 -2 4 -6 -9 -4 -7 -10 7 -22 12 -10 18 -21 14 -25 -3
-3 -1 -6 6 -6 7 0 9 -4 6 -10 -3 -5 -1 -10 4 -10 6 0 11 -9 11 -20 0 -11 5
-20 11 -20 5 0 7 -4 4 -10 -3 -5 -2 -10 3 -10 9 0 36 -54 37 -75 1 -5 7 -9 15
-7 11 3 11 0 -1 -14 -9 -12 -9 -15 -1 -10 8 5 12 0 12 -13 0 -12 4 -21 9 -21
5 0 12 -7 15 -16 4 -10 2 -13 -7 -9 -6 4 -3 -1 7 -9 11 -9 16 -16 10 -16 -5 0
-2 -5 6 -10 13 -8 13 -10 1 -10 -11 0 -10 -4 5 -16 10 -8 12 -13 4 -9 -12 5
-12 4 1 -7 9 -7 14 -19 12 -25 -3 -7 0 -13 7 -13 6 0 10 -8 8 -17 -2 -10 2
-17 8 -16 6 1 10 -8 8 -20 -1 -12 5 -32 12 -44 8 -12 14 -31 14 -43 0 -11 4
-20 8 -20 4 0 9 -11 10 -26 1 -14 7 -34 12 -45 6 -10 7 -19 3 -19 -4 0 2 -7
13 -16 10 -8 13 -12 5 -8 -9 5 -12 3 -7 -4 4 -7 15 -12 24 -12 15 0 15 -2 2
-10 -9 -6 -11 -10 -3 -10 7 0 10 -6 7 -14 -3 -8 4 -16 17 -19 14 -4 20 -11 16
-21 -4 -9 -3 -15 1 -15 26 4 42 -2 36 -13 -5 -9 -2 -9 9 1 15 12 17 11 17 -3
0 -10 4 -15 9 -12 5 3 12 -1 15 -10 3 -8 10 -13 14 -10 5 3 14 -4 22 -14 8
-10 17 -17 22 -14 4 3 8 -1 8 -9 0 -8 14 -20 30 -27 17 -7 30 -17 30 -22 0 -5
5 -6 10 -3 6 4 10 3 9 -2 -3 -20 2 -34 11 -28 6 3 10 1 10 -5 0 -6 5 -8 12 -4
7 5 8 3 4 -5 -5 -8 0 -14 13 -18 12 -3 21 -9 21 -14 0 -5 11 -15 25 -21 14 -6
25 -17 25 -24 0 -6 7 -15 16 -18 8 -3 12 -10 9 -16 -3 -5 -1 -10 6 -10 7 0 9
-3 6 -7 -4 -3 0 -17 8 -29 14 -21 14 -23 -2 -17 -10 4 -14 2 -10 -5 10 -15
-13 -62 -30 -62 -7 0 -13 5 -13 11 0 5 -4 8 -9 4 -6 -3 -40 24 -77 60 -37 36
-71 65 -76 65 -4 0 -8 7 -8 16 0 8 -5 12 -10 9 -5 -3 -10 -1 -10 4 0 6 -6 11
-13 11 -7 0 -19 9 -27 20 -8 11 -19 20 -24 20 -5 0 -17 10 -27 22 -11 11 -19
17 -19 12 0 -5 -9 5 -20 21 -11 17 -20 26 -20 21 0 -5 -9 1 -19 13 -11 13 -24
20 -29 17 -6 -3 -13 1 -16 10 -3 8 -10 12 -16 9 -5 -3 -10 2 -10 11 0 10 -3
15 -6 11 -3 -3 -19 7 -35 23 -17 16 -46 36 -65 45 -19 9 -34 20 -34 26 0 6 -4
7 -10 4 -5 -3 -10 -2 -10 3 0 10 -50 37 -63 33 -5 -1 -6 2 -4 6 7 12 -17 30
-36 27 -9 -1 -14 2 -11 8 3 5 -3 12 -15 15 -12 3 -21 10 -21 16 0 6 -3 8 -6 4
-3 -3 -23 4 -43 16 -20 12 -49 29 -66 37 -16 8 -33 19 -37 25 -4 5 -8 6 -8 2
0 -4 -9 -3 -20 3 -11 6 -18 15 -15 20 3 6 -1 7 -9 4 -9 -3 -16 -1 -16 5 0 6
-6 8 -14 5 -7 -3 -16 2 -19 10 -4 9 -13 13 -22 10 -8 -3 -15 -1 -15 4 0 6 -9
9 -20 7 -13 -2 -21 3 -26 17 -5 16 -8 18 -15 7 -7 -12 -9 -12 -9 0 0 8 -3 11
-7 8 -3 -4 -12 -2 -19 4 -7 5 -25 12 -40 15 -16 3 -32 11 -36 17 -4 7 -8 8 -8
3 0 -5 -6 -3 -13 3 -8 6 -17 8 -20 4 -4 -3 -7 -2 -7 3 0 5 -12 11 -27 12 -14
1 -35 10 -46 20 -11 9 -17 11 -13 5 4 -7 2 -13 -3 -13 -6 0 -11 5 -11 12 0 6
-3 9 -6 6 -3 -4 -22 1 -42 9 -20 8 -37 15 -37 14 0 -1 -7 0 -15 3 -29 9 -75
17 -125 22 -27 3 -52 8 -55 12 -3 4 -25 8 -50 8 -30 0 -44 5 -42 13 2 9 -2 9
-14 3 -10 -6 -30 -6 -47 -1 -16 5 -34 6 -38 3 -5 -3 -9 0 -9 5 0 6 -5 11 -11
11 -5 0 -7 -5 -3 -12 5 -7 3 -8 -7 -3 -21 14 -129 14 -129 1 0 -6 -4 -5 -9 3
-8 12 -14 13 -37 2 -22 -10 -25 -14 -13 -22 10 -6 11 -9 1 -9 -21 0 8 -26 32
-28 11 0 26 -8 32 -17 7 -9 19 -18 27 -19 8 -1 23 -8 33 -16 16 -13 17 -13 10
0 -4 8 -1 7 8 -4 8 -10 19 -15 25 -11 6 3 11 1 11 -4 0 -6 7 -11 15 -11 8 0
15 -4 15 -9 0 -5 18 -16 40 -25 22 -9 40 -21 40 -27 0 -5 5 -7 10 -4 6 3 10 2
10 -2 0 -5 17 -16 38 -25 20 -9 48 -27 62 -40 14 -13 32 -24 40 -26 8 -2 19
-10 23 -18 5 -8 12 -12 17 -9 5 3 15 -4 24 -16 9 -13 19 -18 27 -14 7 5 10 4
6 -2 -4 -6 9 -19 28 -29 19 -10 35 -22 35 -26 0 -5 7 -8 15 -8 9 0 20 -10 25
-22 5 -13 9 -16 9 -8 1 9 7 6 18 -10 10 -14 17 -28 16 -31 -1 -4 6 -5 16 -2
10 3 22 -1 26 -8 6 -8 4 -10 -6 -4 -10 5 -11 5 -4 -3 6 -6 17 -12 25 -14 19
-4 40 -24 40 -38 0 -6 4 -9 9 -6 5 3 33 -17 62 -44 29 -28 57 -50 62 -50 4 0
6 -4 3 -9 -3 -4 7 -14 21 -20 15 -7 33 -21 41 -32 7 -10 20 -19 29 -19 9 0 14
-3 10 -6 -7 -7 17 -34 30 -34 5 0 15 -9 23 -19 7 -11 17 -18 22 -15 4 3 8 -3
9 -13 0 -12 2 -13 6 -5 4 10 9 7 17 -10 7 -12 18 -22 25 -20 7 1 10 -2 7 -6
-5 -8 11 -28 53 -67 40 -36 111 -117 111 -126 0 -6 5 -7 10 -4 6 3 14 -3 18
-14 4 -11 11 -21 17 -23 11 -4 56 -48 49 -48 -3 0 1 -7 10 -15 8 -8 19 -15 25
-15 6 0 11 -4 11 -10 0 -5 13 -22 29 -36 16 -14 27 -31 25 -38 -3 -7 7 -18 20
-26 14 -7 23 -16 21 -20 -3 -5 2 -10 10 -14 8 -3 15 -10 15 -16 0 -15 26 -41
34 -33 3 4 6 1 6 -5 0 -5 -6 -13 -12 -15 -7 -3 -3 -6 10 -6 13 -1 21 -5 18 -9
-3 -5 4 -14 14 -22 10 -8 17 -17 14 -21 -2 -5 4 -6 15 -4 13 2 21 -3 24 -17 3
-11 10 -17 16 -13 6 3 11 1 11 -4 0 -6 9 -11 20 -11 11 0 23 -7 27 -16 3 -8
11 -13 17 -11 14 5 37 -18 28 -28 -4 -4 0 -6 8 -5 27 4 38 0 44 -16 4 -10 2
-13 -7 -9 -6 4 -1 -3 13 -15 17 -15 20 -20 7 -16 -15 5 -16 2 -7 -14 7 -13 7
-21 -2 -26 -6 -4 -8 -3 -4 4 3 6 2 13 -3 16 -10 7 -9 -13 2 -31 4 -6 2 -15 -4
-18 -5 -4 -8 -13 -5 -21 3 -8 2 -14 -3 -14 -5 0 -12 -10 -15 -22 -6 -22 -7
-22 -20 -5 -12 15 -14 16 -20 2 -5 -13 -9 -13 -26 -3 -17 11 -22 10 -30 -2 -8
-13 -10 -12 -10 3 0 9 -5 17 -11 17 -5 0 -7 -5 -3 -12 5 -7 3 -8 -7 -2 -8 5
-21 9 -29 9 -8 0 -21 4 -29 9 -9 6 -12 5 -8 -1 4 -7 -3 -10 -18 -9 -14 0 -25
4 -25 7 0 3 -10 5 -23 4 -12 -1 -37 2 -54 6 -22 5 -33 3 -33 -5 0 -7 -3 -7 -8
-1 -4 6 -20 10 -37 10 -16 0 -33 -4 -37 -10 -4 -5 -8 -1 -8 10 0 15 -2 17 -9
6 -5 -7 -22 -13 -37 -13 -16 0 -35 -5 -43 -12 -12 -9 -13 -8 -7 2 7 11 4 12
-13 2 -12 -6 -27 -9 -34 -7 -7 2 -20 -2 -29 -11 -12 -10 -18 -11 -18 -3 0 8
-5 9 -19 2 -10 -6 -21 -7 -25 -3 -4 3 -4 -1 -1 -9 4 -12 0 -15 -17 -14 -13 1
-27 0 -33 -4 -5 -3 -14 -6 -20 -7 -26 -3 -55 -17 -55 -26 0 -6 -8 -8 -18 -6
-12 3 -24 -2 -31 -13 -6 -11 -17 -19 -25 -19 -7 0 -25 -11 -40 -25 -14 -13
-26 -22 -26 -19 0 3 -11 -7 -25 -22 -14 -15 -25 -24 -25 -20 0 4 -6 1 -14 -6
-8 -7 -12 -16 -9 -20 2 -5 -1 -8 -7 -8 -6 0 -8 -4 -5 -10 3 -5 -1 -10 -10 -10
-9 0 -13 -4 -10 -10 3 -5 -1 -10 -9 -10 -9 0 -16 -7 -16 -15 0 -8 -12 -22 -26
-32 -21 -14 -49 -59 -44 -71 1 -2 -7 -10 -17 -18 -10 -7 -14 -14 -9 -14 6 0 1
-7 -10 -15 -10 -8 -15 -15 -10 -15 4 0 -2 -9 -15 -21 -13 -11 -17 -17 -9 -13
12 7 13 5 3 -8 -7 -8 -11 -18 -8 -21 3 -4 2 -5 -2 -2 -9 7 -35 -47 -29 -62 3
-7 0 -12 -7 -10 -7 1 -11 -6 -11 -15 1 -10 -4 -18 -12 -18 -7 0 -11 -8 -9 -20
2 -11 -1 -20 -7 -20 -5 0 -8 -7 -4 -15 3 -8 0 -15 -6 -15 -7 0 -6 -6 2 -16 8
-8 9 -14 4 -12 -5 1 -20 -4 -33 -11 -16 -9 -20 -16 -13 -23 8 -8 8 -17 1 -30
-5 -10 -7 -18 -3 -18 3 0 1 -7 -6 -15 -10 -12 -10 -15 1 -15 8 0 5 -6 -7 -15
-13 -10 -14 -14 -5 -15 11 0 11 -3 1 -15 -6 -8 -9 -18 -6 -24 3 -5 0 -12 -6
-14 -10 -4 -10 -6 0 -6 10 -1 10 -5 -2 -17 -9 -8 -14 -20 -11 -25 4 -5 1 -9
-5 -9 -8 0 -8 -6 0 -20 9 -16 8 -22 -5 -26 -12 -5 -13 -9 -3 -21 9 -11 9 -16
0 -22 -6 -4 -10 -17 -7 -29 2 -13 0 -20 -4 -17 -5 2 -9 -19 -10 -47 0 -28 -4
-54 -8 -57 -5 -3 -8 -46 -8 -96 0 -49 -3 -96 -8 -102 -6 -8 -5 -13 2 -13 13 0
10 -22 -4 -32 -6 -5 -5 -8 4 -8 11 0 11 -3 1 -15 -7 -8 -8 -15 -3 -15 5 0 9
-34 8 -75 0 -57 3 -75 14 -75 11 0 11 -3 1 -15 -8 -9 -9 -15 -2 -15 6 0 9 -10
7 -21 -3 -12 0 -29 6 -38 9 -13 9 -13 4 4 -5 16 -4 18 6 8 15 -15 33 -17 24
-4 -3 6 0 13 7 18 19 12 40 52 33 63 -4 6 1 7 11 3 13 -5 16 -3 11 10 -4 11
-1 17 8 17 8 0 14 4 13 9 -2 5 5 16 14 23 9 7 18 20 20 28 2 8 11 23 20 34 10
10 15 23 12 28 -3 4 2 8 11 8 8 0 19 10 24 23 5 12 18 28 29 36 12 8 19 17 17
21 -2 3 22 34 54 68 32 34 53 63 47 66 -6 2 -5 5 3 5 16 1 87 72 83 83 -1 4 2
8 8 8 14 0 50 37 43 44 -4 3 -1 6 6 6 16 0 42 26 34 34 -4 3 4 6 16 6 17 0 21
4 17 15 -3 8 -1 15 3 15 12 0 56 36 107 88 23 23 45 42 50 42 15 1 54 38 54
52 0 10 3 9 10 -2 6 -10 10 -11 10 -2 0 6 6 12 14 12 7 0 21 11 31 24 11 14
24 22 33 18 11 -4 14 -1 9 12 -4 10 -3 15 3 11 16 -10 85 36 73 49 -4 3 -1 7
5 7 7 1 16 2 22 3 5 0 15 7 22 14 6 6 18 12 25 12 7 0 13 5 13 10 0 6 8 10 19
10 10 0 24 7 31 15 7 8 18 15 25 15 8 0 15 3 17 8 2 4 35 22 73 41 39 19 78
38 87 42 10 5 27 9 38 9 17 0 20 -7 20 -45 0 -38 -3 -45 -19 -45 -11 0 -22 -4
-26 -10 -3 -5 -32 -14 -65 -21 -33 -6 -70 -20 -82 -30 -13 -10 -27 -22 -33
-27 -5 -4 -17 -11 -26 -14 -9 -4 -19 -20 -22 -38 -4 -17 -11 -29 -17 -25 -9 6
-14 -7 -11 -27 0 -5 -6 -8 -15 -8 -8 0 -12 -4 -9 -10 3 -5 2 -10 -4 -10 -5 0
-18 -13 -27 -29 -10 -17 -21 -28 -26 -25 -4 3 -8 -4 -8 -16 0 -12 -4 -18 -10
-15 -5 3 -10 1 -10 -5 0 -17 -26 -40 -35 -32 -5 4 -5 1 -1 -5 4 -8 -3 -23 -18
-37 -14 -13 -26 -28 -26 -33 0 -5 -9 -18 -19 -30 -11 -11 -29 -39 -40 -62 -12
-22 -26 -41 -32 -41 -6 0 -7 -4 -4 -10 3 -5 2 -10 -4 -10 -6 0 -18 -17 -28
-37 -9 -21 -23 -44 -30 -51 -7 -8 -11 -17 -8 -22 3 -4 -2 -11 -11 -14 -8 -3
-12 -10 -9 -16 3 -5 1 -10 -5 -10 -6 0 -9 -4 -6 -9 3 -5 -1 -11 -9 -15 -8 -3
-15 -15 -15 -26 0 -11 -5 -20 -11 -20 -6 0 -8 -7 -5 -16 3 -8 2 -13 -3 -10 -5
3 -15 -2 -22 -11 -10 -12 -10 -14 -1 -9 6 4 12 2 12 -3 0 -6 -4 -11 -9 -11 -5
0 -11 -10 -15 -22 -7 -29 -7 -29 -26 -51 -8 -10 -15 -23 -15 -30 -1 -7 -6 -11
-13 -10 -6 2 -9 -4 -6 -12 4 -8 1 -15 -6 -15 -6 0 -8 -4 -5 -10 3 -5 1 -10 -5
-10 -7 0 -9 -7 -6 -15 3 -9 -1 -18 -8 -21 -8 -3 -13 -16 -11 -29 1 -15 -2 -22
-8 -18 -6 4 -8 0 -4 -10 4 -10 2 -16 -5 -14 -6 1 -15 -13 -20 -30 -5 -18 -13
-33 -19 -33 -6 0 -7 -4 -4 -10 3 -6 1 -10 -5 -10 -6 0 -9 -4 -5 -9 3 -5 -1
-16 -9 -24 -8 -8 -13 -17 -10 -20 3 -3 -2 -17 -11 -31 -10 -14 -15 -32 -12
-40 4 -11 1 -13 -10 -9 -11 4 -14 3 -9 -6 4 -6 2 -18 -4 -26 -7 -8 -9 -15 -4
-15 5 0 2 -5 -6 -10 -13 -9 -13 -10 0 -10 13 0 13 -2 1 -9 -16 -10 -42 -81
-35 -93 3 -4 0 -8 -6 -8 -7 0 -9 -7 -6 -16 3 -8 2 -12 -4 -9 -6 3 -11 -4 -12
-17 0 -13 -2 -29 -2 -36 -1 -7 -6 -16 -11 -20 -6 -4 -10 -17 -9 -29 1 -12 -3
-20 -7 -17 -8 5 -14 -33 -10 -63 1 -7 -3 -13 -10 -13 -6 0 -9 -8 -6 -20 3 -11
2 -18 -3 -15 -4 2 -10 -12 -14 -33 -3 -20 -12 -50 -20 -65 -9 -15 -11 -25 -6
-22 6 4 10 2 10 -4 0 -5 -5 -13 -10 -16 -6 -4 -8 -15 -5 -25 3 -10 1 -21 -5
-25 -6 -3 -8 -11 -5 -16 4 -5 0 -9 -7 -9 -9 0 -9 -3 2 -10 12 -8 12 -10 1 -10
-8 0 -11 -3 -8 -7 4 -3 1 -13 -6 -21 -10 -13 -9 -14 3 -7 12 6 13 5 3 -6 -7
-7 -13 -21 -13 -30 0 -10 -6 -20 -12 -22 -10 -4 -9 -6 1 -6 10 -1 11 -4 3 -14
-6 -7 -9 -22 -8 -32 2 -11 -1 -26 -7 -32 -6 -9 -6 -13 2 -13 6 0 11 -5 11 -11
0 -5 -4 -8 -9 -5 -11 7 -17 -18 -16 -71 0 -24 -3 -43 -7 -43 -5 0 -8 -5 -8
-11 0 -5 6 -7 13 -3 9 6 9 5 -1 -8 -6 -8 -13 -34 -14 -56 -1 -23 -5 -39 -11
-35 -5 3 -4 -4 2 -15 6 -12 7 -23 3 -26 -4 -2 -8 -32 -7 -65 0 -34 -4 -61 -8
-61 -4 0 -3 -8 2 -18 6 -11 6 -24 0 -35 -12 -21 -17 -327 -6 -334 4 -3 3 -10
-2 -17 -6 -7 -9 -15 -6 -18 3 -3 6 -22 7 -42 1 -20 6 -36 12 -36 6 0 4 -5 -4
-10 -9 -6 -11 -13 -5 -17 6 -5 10 -33 9 -63 0 -30 4 -58 10 -62 8 -5 7 -8 -1
-8 -7 0 -12 -11 -11 -24 1 -14 6 -23 10 -20 4 2 6 -8 4 -23 -1 -16 2 -34 7
-41 6 -8 6 -12 -2 -12 -11 0 -11 -21 1 -30 3 -3 7 -28 9 -55 1 -28 7 -56 12
-62 6 -9 5 -13 -4 -13 -12 0 -12 -2 0 -9 8 -5 14 -24 13 -42 0 -18 4 -39 10
-46 7 -9 7 -13 -1 -13 -9 0 -9 -5 -1 -20 6 -11 8 -25 5 -30 -3 -6 0 -10 7 -10
9 0 9 -3 -2 -10 -8 -5 -10 -10 -3 -10 6 0 10 -11 8 -25 -1 -14 2 -25 7 -25 5
0 8 -6 7 -13 -4 -30 2 -68 9 -63 5 3 8 -11 7 -30 0 -20 3 -38 7 -40 4 -3 5
-11 1 -19 -3 -8 0 -15 5 -15 6 0 9 -11 6 -25 -2 -14 0 -25 5 -25 5 0 7 -14 6
-30 -1 -17 1 -30 6 -30 5 0 9 -13 9 -29 0 -17 4 -32 9 -36 6 -3 10 -13 10 -23
2 -46 6 -62 14 -62 5 0 7 -6 4 -12 -2 -7 3 -22 12 -32 9 -11 11 -16 4 -12 -9
5 -8 -1 2 -20 7 -15 11 -33 8 -40 -3 -8 1 -14 10 -14 10 0 13 -9 11 -30 -3
-22 1 -30 12 -30 8 0 12 -5 9 -10 -8 -13 4 -52 14 -45 5 2 7 -7 5 -20 -1 -14
2 -23 7 -19 5 3 9 0 9 -6 0 -14 20 -34 43 -43 10 -4 17 -17 17 -32 0 -15 4
-24 10 -20 9 6 15 -52 10 -99 -1 -10 3 -22 8 -25 6 -3 12 -15 14 -26 1 -11 11
-27 21 -37 11 -10 14 -19 7 -23 -7 -4 -5 -11 5 -21 8 -9 12 -21 8 -27 -4 -7
-1 -7 9 1 14 11 16 10 14 -5 -2 -10 3 -24 11 -32 8 -7 11 -21 8 -29 -3 -9 -3
-13 1 -10 9 10 37 -20 30 -31 -4 -5 4 -18 16 -28 13 -10 24 -25 26 -33 2 -8
11 -22 22 -31 15 -13 16 -19 7 -28 -7 -7 -7 -11 -2 -10 17 4 45 -13 45 -27 0
-7 11 -25 26 -39 14 -14 23 -29 20 -34 -3 -5 1 -11 9 -15 8 -3 15 -12 15 -21
0 -8 5 -15 10 -15 6 0 10 -9 10 -20 0 -11 6 -20 13 -20 6 0 21 -13 32 -28 12
-18 14 -24 4 -17 -8 6 -6 2 4 -8 11 -9 16 -17 13 -17 -4 0 -1 -6 6 -14 7 -8
16 -12 20 -9 4 2 5 -2 2 -10 -3 -8 0 -18 7 -23 8 -5 10 -3 4 6 -5 9 -4 11 3 6
7 -4 12 -14 12 -23 0 -9 6 -13 14 -10 10 4 13 1 10 -8 -3 -7 3 -16 15 -20 11
-3 23 -15 26 -26 4 -10 13 -19 22 -19 8 0 17 -9 20 -19 3 -12 11 -17 19 -14 8
3 14 0 14 -7 0 -12 25 -41 35 -40 3 0 4 -3 3 -6 -3 -7 42 -28 54 -26 5 1 8 -3
8 -9 0 -16 31 -38 53 -39 9 0 17 -4 17 -10 0 -5 7 -10 15 -10 8 0 15 -3 15 -7
0 -5 12 -17 27 -27 16 -12 23 -14 18 -5 -8 12 -6 12 8 1 9 -8 21 -11 26 -7 7
4 8 -1 4 -11 -4 -12 -3 -15 5 -10 7 4 12 2 12 -3 0 -6 9 -11 20 -11 11 0 20
-4 20 -10 0 -5 7 -6 17 -3 12 5 14 3 8 -7 -6 -10 -4 -12 9 -7 10 4 19 1 22 -7
3 -8 14 -13 25 -11 10 2 19 1 19 -3 0 -4 9 -13 21 -20 12 -8 18 -9 15 -3 -4 6
6 4 21 -4 15 -8 36 -15 46 -15 10 0 15 -4 12 -10 -4 -6 1 -7 11 -3 11 4 15 2
11 -4 -4 -6 3 -9 18 -7 14 1 25 -1 25 -6 0 -5 8 -7 17 -6 10 2 23 -3 30 -9 6
-7 23 -11 37 -10 15 2 24 -1 20 -6 -4 -7 42 -14 69 -10 4 0 7 -4 7 -10 0 -6 7
-8 16 -5 9 4 24 1 32 -6 12 -10 14 -10 8 -1 -5 9 -2 11 8 7 9 -3 14 -10 11
-14 -3 -5 3 -7 12 -6 10 2 21 -2 25 -8 5 -8 8 -7 8 2 0 8 5 10 13 5 6 -4 17
-9 22 -10 44 -10 86 -16 118 -17 20 0 37 -5 37 -11 0 -5 5 -3 10 5 6 10 10 11
10 3 0 -9 15 -13 43 -13 24 0 47 -3 51 -7 13 -13 739 -12 755 1 12 8 13 8 7
-2 -8 -13 6 -17 18 -5 4 4 26 9 49 11 45 3 79 8 87 12 12 6 37 5 53 -3 9 -4
17 -4 17 1 0 12 43 10 52 -3 5 -6 8 -6 8 2 0 6 11 10 25 8 14 -1 25 1 25 6 0
4 8 8 18 8 52 2 82 7 82 12 0 3 15 5 33 4 17 0 37 3 43 7 6 4 29 9 51 11 22 2
44 6 49 9 5 2 22 5 38 6 16 1 35 7 43 13 7 7 16 9 20 5 3 -3 17 1 31 10 19 12
26 13 32 4 5 -8 10 -8 14 -2 3 5 22 13 41 16 19 4 35 11 35 15 0 5 11 7 25 6
14 -2 25 1 25 6 0 5 11 9 24 9 14 0 28 5 31 11 4 6 13 8 21 5 8 -3 14 -1 14 4
0 5 9 7 20 5 11 -2 24 3 30 13 5 9 10 14 10 10 0 -4 18 -1 40 7 22 8 40 12 40
10 0 -2 12 2 27 10 15 8 30 12 35 9 4 -3 8 0 8 6 0 7 7 9 15 6 9 -3 18 1 21 9
4 8 10 13 14 10 5 -3 15 1 22 8 7 8 21 12 32 9 13 -4 17 -1 12 7 -5 8 -3 11 5
10 18 -3 46 9 81 33 16 11 32 16 38 13 5 -3 10 2 10 12 0 15 2 16 10 3 5 -8
10 -10 10 -5 0 8 43 32 70 39 3 1 11 5 18 9 6 5 17 5 22 2 6 -4 9 -1 8 7 -2 7
7 14 20 16 12 2 22 8 22 13 0 6 5 7 10 4 6 -3 13 1 16 9 3 9 10 13 15 10 5 -3
9 0 9 5 0 6 7 11 15 11 7 0 19 8 24 18 8 13 11 14 11 2 0 -12 3 -11 11 3 5 9
17 17 24 17 8 0 15 7 15 15 0 8 6 12 13 9 8 -3 20 2 27 10 7 9 16 13 21 10 5
-3 9 3 9 13 0 14 2 15 9 4 7 -11 10 -9 16 8 3 12 11 19 16 16 5 -4 9 -1 9 6 0
7 3 10 6 6 4 -3 15 4 25 16 10 12 18 18 19 14 0 -4 6 -2 14 5 8 7 12 16 9 20
-2 4 4 5 13 1 13 -5 16 -3 11 10 -4 12 -1 15 14 12 13 -3 23 4 31 19 7 17 17
23 34 21 17 -1 21 1 15 9 -7 8 1 11 25 11 19 0 34 -4 34 -9 0 -4 7 -6 15 -2 8
3 15 1 15 -4 0 -6 7 -10 16 -10 8 0 22 -6 30 -14 7 -8 25 -13 39 -12 13 2 22
-1 19 -5 -3 -5 4 -9 16 -9 12 0 19 -4 16 -8 -4 -7 10 -11 52 -14 6 -1 12 -5
12 -10 0 -4 14 -8 30 -8 17 0 30 -5 30 -11 0 -6 9 -9 20 -6 11 3 20 1 20 -5 0
-5 4 -7 9 -4 5 3 11 0 14 -8 4 -9 14 -12 28 -9 13 4 20 2 16 -4 -4 -6 6 -9 24
-8 17 1 36 -3 43 -10 6 -7 19 -11 29 -9 9 1 17 -3 17 -9 0 -5 3 -7 7 -4 3 4
15 -1 26 -10 15 -13 18 -14 12 -3 -8 13 -7 13 8 1 10 -8 20 -11 24 -8 3 4 12
2 19 -4 8 -6 21 -9 29 -5 10 3 15 -1 15 -11 0 -13 3 -14 11 -6 8 8 20 6 46 -8
19 -11 31 -14 27 -7 -6 9 -3 9 9 -1 9 -7 17 -10 17 -6 0 4 12 0 26 -10 18 -11
24 -12 18 -4 -6 12 -5 12 9 0 9 -7 17 -10 17 -6 0 4 7 2 15 -5 9 -7 18 -10 22
-7 3 4 15 1 26 -5 12 -6 34 -11 49 -10 15 0 28 -4 28 -9 0 -6 9 -7 20 -4 11 3
20 2 20 -3 0 -5 6 -9 13 -9 6 0 21 -4 31 -9 15 -5 17 -4 11 6 -6 10 -4 11 6 4
14 -9 19 -10 40 -13 5 0 8 -5 5 -9 -3 -5 13 -8 35 -7 21 1 39 -2 39 -7 0 -5 4
-7 9 -4 5 3 29 0 54 -8 25 -8 48 -11 51 -9 3 3 13 2 23 -2 28 -12 45 -16 86
-17 20 -1 37 -5 37 -8 0 -4 17 -7 38 -6 22 1 42 -5 50 -14 8 -8 11 -10 8 -3
-4 7 1 11 14 10 11 -1 20 -4 20 -8 0 -4 8 -6 18 -4 9 1 25 -2 35 -7 12 -6 17
-5 17 4 0 10 2 10 9 -1 6 -10 10 -10 16 -1 6 9 10 9 16 -1 7 -11 9 -11 9 -1 0
10 4 9 16 -3 14 -13 19 -14 25 -3 5 7 9 8 9 2 0 -6 7 -11 15 -11 8 0 12 4 10
7 -3 4 6 7 20 7 14 0 23 -2 21 -6 -2 -3 12 -7 32 -8 54 -4 62 -5 62 -15 0 -4
5 -8 11 -8 5 0 7 6 3 13 -5 8 -3 8 9 -2 12 -9 52 -14 137 -15 66 0 120 -4 120
-8 0 -5 5 -8 11 -8 5 0 7 6 3 13 -6 9 -4 9 7 1 8 -6 41 -12 73 -13 33 -1 64
-5 69 -8 5 -3 13 1 18 8 7 11 9 11 9 1 0 -7 5 -10 11 -6 6 3 15 0 20 -7 6 -10
9 -11 9 -1 0 6 7 12 15 12 8 0 15 -6 15 -12 0 -9 3 -9 8 -3 10 15 54 17 46 3
-5 -7 -2 -8 7 -2 21 13 39 14 39 2 0 -6 6 -5 15 2 12 10 15 10 15 -1 0 -11 2
-11 10 1 8 12 10 12 10 1 0 -10 3 -11 14 -2 11 9 16 9 21 0 6 -8 10 -7 16 2 6
10 9 10 9 2 0 -9 7 -10 25 -3 15 6 26 6 30 -1 4 -5 12 -6 18 -2 17 10 47 11
53 1 3 -5 12 -4 20 3 8 6 14 7 14 2 0 -5 7 -10 15 -10 8 0 15 5 15 10 0 5 6 5
13 -2 10 -8 17 -7 26 2 9 9 14 9 21 -3 7 -10 10 -11 10 -2 0 14 21 12 32 -3 5
-6 8 -6 8 2 0 13 77 12 99 -1 9 -6 12 -5 8 1 -5 7 16 11 58 12 94 2 99 3 113
14 8 6 12 5 12 -4 0 -9 3 -10 8 -4 4 6 39 11 77 12 116 1 136 3 132 11 -3 4 9
6 26 6 18 -1 38 4 46 10 11 8 13 8 7 -1 -4 -7 -2 -13 3 -13 6 0 11 6 11 13 0
8 4 7 10 -3 5 -8 10 -10 10 -4 0 5 24 11 53 13 95 5 107 6 107 11 0 3 19 5 43
4 23 0 49 3 58 7 9 5 21 3 28 -4 10 -9 11 -8 6 4 -5 14 0 16 30 13 21 -2 33 1
30 6 -8 13 2 13 27 -1 15 -8 19 -8 14 0 -5 7 7 11 34 11 23 0 39 4 36 8 -3 5
8 8 24 7 17 -1 30 1 30 5 0 4 7 7 15 7 8 0 15 -5 15 -11 0 -6 5 -4 10 4 6 9
21 14 40 12 16 -2 30 1 30 7 0 5 9 8 20 6 11 -2 20 1 20 8 0 8 3 8 11 0 9 -9
15 -8 26 3 8 8 19 12 24 9 5 -4 15 -3 22 2 6 4 21 9 32 10 11 1 36 6 55 10 19
3 38 6 43 5 4 -1 7 3 7 9 0 6 9 9 20 6 11 -3 22 -1 25 3 3 5 14 7 25 5 11 -2
20 0 20 5 0 5 9 7 20 5 11 -2 20 1 20 6 0 6 5 7 10 4 6 -3 10 -2 10 4 0 5 8 8
18 6 9 -1 25 2 34 6 9 5 28 10 42 11 15 1 26 5 26 9 0 4 12 6 26 4 19 -2 24 1
19 13 -4 12 -3 12 9 3 9 -7 17 -8 20 -2 3 5 17 8 31 7 13 -2 22 1 19 5 -5 8
17 14 39 10 4 0 7 3 7 7 0 5 6 9 13 10 44 5 77 16 77 24 0 5 8 8 18 7 30 -3
43 1 37 10 -3 6 3 8 14 6 11 -2 24 2 30 9 6 7 21 12 33 11 31 -3 60 13 51 28
-4 7 0 7 10 -2 12 -9 17 -10 17 -2 0 7 4 10 9 6 5 -3 12 -1 16 5 3 5 17 10 31
10 14 0 22 4 19 10 -3 6 1 7 9 4 9 -3 16 -1 16 5 0 6 3 10 8 10 4 -1 10 0 15
1 4 1 12 4 17 5 6 1 11 3 13 5 1 1 11 3 21 5 10 2 23 10 27 17 5 7 9 9 9 4 0
-5 8 -2 17 5 14 12 16 12 8 0 -5 -8 6 -5 24 8 17 13 38 20 46 17 8 -3 14 0 12
7 -1 7 6 11 16 9 9 -2 17 1 17 5 0 5 10 9 22 10 11 1 24 7 28 13 4 6 15 8 25
4 12 -5 16 -4 12 3 -6 10 27 27 46 24 4 -1 7 4 7 10 0 5 4 8 9 4 5 -3 12 -1
16 5 4 6 11 8 16 5 5 -4 9 -1 9 6 0 6 8 9 20 6 11 -3 18 -1 14 4 -3 5 2 9 10
9 9 0 16 5 16 11 0 6 6 9 12 7 7 -3 19 1 26 9 8 7 18 11 23 8 5 -4 9 -1 9 5 0
6 5 8 10 5 6 -3 10 -2 10 4 0 5 14 12 31 16 17 4 33 13 36 21 3 8 9 12 13 9 5
-3 11 -1 15 5 4 6 11 8 16 5 5 -4 9 -1 9 5 0 6 5 8 10 5 6 -3 13 1 16 9 3 9
10 14 14 11 5 -3 15 2 24 11 9 8 25 16 36 17 11 1 19 6 17 12 -3 5 6 11 20 11
13 1 33 10 43 19 10 9 24 14 29 10 6 -3 11 1 11 9 0 9 3 15 8 15 21 -4 32 2
26 14 -4 6 -4 9 1 5 9 -9 67 20 78 39 5 7 12 11 18 8 11 -8 41 20 31 29 -3 4
1 4 11 0 11 -4 17 -1 17 7 0 7 3 10 6 6 4 -3 12 -1 20 6 26 24 39 33 47 35 21
5 66 33 70 44 4 10 6 9 6 -1 1 -9 8 -6 21 9 11 13 20 19 20 14 0 -5 5 -1 11 9
5 9 17 17 24 17 8 0 15 5 15 11 0 6 7 9 15 5 9 -3 15 0 15 9 0 8 6 15 13 15 7
0 29 14 47 30 19 17 40 28 48 25 7 -2 10 0 7 5 -3 5 5 15 19 21 14 7 23 16 20
20 -3 5 2 6 10 3 9 -3 16 -1 16 5 0 6 6 11 14 11 7 0 21 10 30 22 9 13 14 16
10 8 -3 -8 8 1 26 20 18 19 29 28 25 20 -5 -8 1 -6 12 5 11 11 18 24 15 29 -3
5 0 6 6 2 13 -8 39 4 43 19 5 18 24 32 38 27 8 -3 11 0 7 7 -4 6 -3 11 3 11 5
0 24 13 42 29 18 17 37 29 43 28 6 -1 10 4 9 10 -2 7 9 16 23 19 16 4 23 12
20 20 -4 9 2 14 15 14 11 0 17 4 14 10 -3 5 7 15 22 22 15 7 31 16 34 21 4 5
17 14 29 20 13 7 21 16 19 20 -2 5 4 13 14 18 9 6 15 14 12 20 -3 5 1 6 9 3 9
-3 17 2 21 15 3 12 11 19 16 16 5 -4 9 -1 9 6 0 7 3 10 6 6 7 -6 34 16 34 28
0 4 7 13 15 21 8 9 15 12 15 8 0 -4 8 3 19 14 10 12 20 19 24 16 3 -3 4 3 4
13 -1 9 5 18 13 18 8 1 14 6 12 13 -2 11 11 16 31 13 4 0 6 2 6 6 -3 18 1 33
9 31 9 -4 52 39 52 53 0 5 4 8 8 5 10 -6 43 30 35 38 -4 3 1 6 10 6 9 0 17 6
17 14 0 8 14 24 30 36 17 12 27 27 24 33 -4 7 -4 9 1 5 11 -10 77 61 69 74 -4
6 -3 8 3 5 5 -3 15 3 23 13 8 10 18 16 23 13 6 -4 7 -1 3 6 -5 8 6 26 28 48
19 20 33 40 30 44 -3 5 3 6 12 2 10 -3 15 -2 12 3 -6 12 28 44 38 36 4 -4 4
-2 0 5 -3 6 5 23 19 37 14 14 23 26 19 26 -4 0 3 9 16 20 13 11 19 20 14 20
-5 0 -1 5 9 11 9 6 15 15 11 20 -3 5 -2 8 3 7 4 -2 9 1 10 5 1 5 11 17 23 27
12 11 19 23 16 29 -4 5 -1 13 5 17 8 5 9 3 4 -7 -13 -23 0 -8 41 46 20 28 31
46 23 40 -8 -5 -7 -3 3 7 10 9 18 21 18 27 0 6 7 11 16 11 8 0 12 4 9 10 -3 6
-1 10 4 10 6 0 11 9 11 21 0 11 5 17 10 14 6 -3 10 -2 10 4 0 5 12 24 28 42
15 18 20 29 12 24 -12 -7 -13 -6 -3 7 7 8 10 18 6 22 -4 4 0 4 10 0 13 -4 17
-1 17 15 0 12 4 21 9 21 5 0 14 14 20 30 5 16 14 30 19 30 4 0 14 16 22 35 8
19 17 35 22 35 4 0 8 5 8 11 0 6 9 24 21 40 11 16 17 29 12 29 -4 0 0 5 10 11
9 6 15 14 13 18 -3 4 4 18 15 29 11 12 16 22 12 22 -4 0 1 7 11 15 13 10 15
15 6 15 -9 0 -8 4 5 13 10 8 15 19 11 25 -4 7 -1 12 8 12 10 0 13 6 9 17 -4
10 -2 14 4 10 12 -8 35 47 25 59 -4 4 -2 5 3 1 6 -3 15 6 22 19 6 13 7 21 1
18 -5 -3 -4 3 3 14 7 12 17 19 21 16 4 -3 5 2 2 10 -4 9 -1 16 6 16 7 0 10 8
7 20 -3 11 -1 20 3 20 8 0 20 27 19 43 0 5 10 17 22 28 15 13 17 19 8 19 -9 1
-8 4 5 11 15 9 16 13 5 20 -11 7 -10 9 4 9 10 0 15 5 12 10 -3 6 -2 10 4 10 5
0 8 9 6 20 -2 11 1 20 7 20 6 0 9 3 5 6 -3 4 1 13 9 21 8 8 12 19 9 24 -4 5
-1 9 4 9 6 0 10 3 10 8 -1 4 0 10 1 15 1 4 3 10 4 15 7 31 19 52 29 52 7 0 6
4 -3 10 -8 5 -10 10 -4 10 11 0 27 38 29 70 0 8 6 14 12 13 5 -1 9 9 7 22 -1
14 2 25 7 25 6 0 7 4 4 10 -3 6 -1 10 6 10 6 0 9 8 6 20 -3 11 -1 20 5 20 5 0
6 4 3 10 -3 5 -1 10 4 10 6 0 10 3 10 8 -1 4 0 9 1 12 2 5 9 46 12 68 1 6 6
12 11 12 6 0 7 3 4 7 -4 3 -1 13 6 21 10 13 9 14 -3 7 -12 -7 -13 -6 -3 7 7 8
10 18 6 21 -3 4 -1 7 6 7 7 0 9 5 6 10 -4 6 -1 17 5 25 7 8 9 15 4 15 -5 0 -2
5 6 10 10 6 11 10 3 10 -7 0 -13 5 -13 11 0 5 5 7 10 4 6 -3 11 2 12 12 0 10
2 23 2 29 1 6 7 18 14 27 10 12 10 16 0 20 -10 4 -10 8 2 16 8 6 11 11 5 11
-5 0 -3 5 5 10 13 9 13 10 0 10 -11 0 -10 3 4 11 15 9 16 13 5 20 -8 5 -9 9
-4 9 6 0 12 11 13 26 1 14 6 33 10 42 5 9 8 28 8 42 -1 14 6 31 14 38 13 12
13 13 -1 9 -15 -5 -15 -3 -2 24 8 16 12 33 8 39 -3 5 -2 10 2 10 5 0 8 12 8
28 -1 15 2 32 7 38 4 6 9 24 10 40 1 16 6 35 12 43 9 12 8 13 -4 6 -12 -7 -13
-6 -3 6 6 8 12 17 12 22 1 4 1 8 2 10 4 11 11 79 15 167 3 58 10 110 15 117 7
7 6 14 -1 18 -7 4 -8 11 -2 18 14 17 13 877 0 877 -6 0 -4 8 3 17 8 10 9 14 2
10 -7 -5 -12 -1 -12 10 0 27 -9 128 -11 128 -1 0 -3 15 -5 32 -1 18 -7 39 -13
46 -9 10 -8 17 0 25 7 7 8 12 2 12 -6 0 -10 10 -9 22 1 12 -3 43 -8 68 -5 25
-9 52 -9 60 -1 8 -5 21 -11 28 -6 8 -6 12 3 12 10 0 10 3 0 15 -7 8 -9 15 -5
15 4 0 1 8 -6 17 -12 15 -12 16 1 8 11 -6 10 -3 -3 12 -9 11 -14 22 -11 26 4
3 3 14 -1 24 -4 10 -9 29 -11 43 -4 37 -9 53 -18 69 -7 10 -5 12 5 6 11 -6 12
-5 2 6 -7 7 -13 21 -13 31 0 10 -3 18 -8 18 -4 0 -7 20 -7 44 0 24 -3 42 -6
40 -8 -5 -19 21 -19 46 0 10 -6 21 -12 23 -10 4 -10 6 0 6 10 1 9 8 -3 31 -9
17 -12 30 -8 30 5 0 1 5 -7 10 -11 7 -12 10 -2 10 10 0 10 4 -2 15 -8 8 -13
24 -11 35 2 11 -1 20 -7 20 -6 0 -8 9 -5 20 3 10 0 18 -5 17 -6 -1 -13 11 -15
28 -2 16 -10 33 -16 37 -7 4 -8 8 -3 8 5 0 2 8 -5 17 -12 15 -12 16 1 8 12 -7
11 -3 -2 18 -10 14 -18 33 -18 42 0 8 -5 15 -11 15 -5 0 -7 5 -4 10 4 6 0 21
-8 34 -12 18 -13 26 -4 35 9 10 9 12 -3 9 -8 -2 -14 3 -12 10 1 6 -3 12 -9 12
-5 0 -7 5 -4 10 4 6 -1 22 -10 36 -9 14 -18 35 -21 47 -2 12 -11 27 -19 33
-13 9 -13 13 -3 17 10 4 10 6 1 6 -7 1 -13 13 -13 27 0 17 -4 23 -12 18 -8 -5
-9 -2 -5 10 6 14 3 17 -9 12 -14 -5 -15 -4 -4 9 8 10 9 15 1 15 -6 0 -11 9
-11 21 0 13 -4 18 -12 13 -8 -5 -9 -2 -5 9 3 10 2 17 -4 17 -6 0 -7 5 -4 10 3
6 1 10 -5 10 -6 0 -8 5 -5 10 3 6 1 10 -5 10 -7 0 -10 7 -6 15 3 8 2 15 -2 15
-5 0 -14 16 -22 35 -8 19 -18 35 -22 35 -5 0 -7 4 -4 8 8 13 -29 63 -40 55 -5
-4 -3 -1 4 7 10 12 8 17 -10 28 -19 11 -20 12 -3 7 16 -4 14 -1 -7 18 -29 25
-37 43 -15 32 6 -4 3 2 -9 12 -11 10 -20 26 -18 36 1 9 -2 15 -7 12 -4 -3 -21
21 -35 55 -15 33 -31 60 -36 60 -4 0 -8 7 -8 15 0 8 -4 15 -10 15 -5 0 -10 9
-10 20 0 11 -4 20 -9 20 -5 0 -14 14 -21 30 -7 17 -15 30 -19 30 -4 0 -15 27
-24 60 -12 39 -24 60 -33 60 -8 0 -12 5 -9 10 3 6 1 10 -5 10 -6 0 -8 5 -5 10
3 6 -2 10 -11 10 -10 0 -15 3 -11 6 8 8 -16 33 -25 27 -5 -2 -8 1 -8 7 0 6
-15 26 -32 45 -49 51 -57 62 -51 69 4 3 -1 6 -10 6 -11 0 -14 5 -10 17 4 9 2
14 -3 11 -11 -7 -35 17 -27 26 4 3 1 6 -6 6 -7 0 -9 5 -6 10 4 6 1 9 -7 8 -7
-2 -12 5 -12 14 1 10 -2 16 -6 13 -4 -3 -11 2 -14 11 -3 8 -10 12 -16 9 -6 -3
-7 1 -4 9 3 9 1 16 -5 16 -6 0 -11 7 -11 15 0 8 -7 15 -16 15 -8 0 -12 5 -9
10 3 6 1 10 -4 10 -6 0 -11 5 -11 11 0 7 -16 27 -36 45 -19 19 -33 34 -29 34
3 0 -10 16 -30 35 -19 20 -35 40 -35 45 0 6 -7 10 -17 10 -9 0 -14 3 -10 6 7
7 -17 35 -30 35 -4 0 -14 11 -21 25 -7 14 -18 22 -24 18 -7 -4 -8 -3 -4 5 4 6
0 14 -8 17 -9 3 -16 12 -16 20 0 8 -5 14 -11 14 -5 0 -7 5 -4 10 4 6 2 9 -3 8
-5 -2 -23 12 -39 30 -17 17 -36 32 -43 32 -7 0 -10 7 -6 16 3 8 2 12 -4 9 -6
-3 -10 1 -10 10 0 9 -4 13 -10 10 -5 -3 -10 -1 -10 5 0 6 -4 8 -10 5 -8 -5
-13 4 -12 25 0 3 -6 11 -14 18 -8 7 -14 10 -14 7 0 -3 -6 0 -14 7 -8 7 -12 16
-9 21 2 4 -1 7 -7 7 -7 0 -25 14 -40 30 -15 17 -31 30 -34 30 -10 0 -54 49
-48 54 3 3 1 6 -5 6 -5 0 -20 9 -33 20 -12 11 -26 17 -31 14 -5 -3 -6 2 -3 10
4 11 0 16 -14 16 -12 0 -24 5 -28 12 -4 7 -3 8 4 4 7 -4 12 -2 12 5 0 7 -8 9
-21 6 -16 -4 -18 -3 -9 8 10 11 8 13 -9 10 -14 -2 -21 1 -21 11 0 8 -8 18 -17
21 -22 8 -48 33 -36 34 4 0 -2 4 -14 9 -16 6 -21 15 -17 27 3 10 2 14 -3 8
-12 -15 -33 -17 -30 -2 1 6 -4 11 -11 9 -8 -1 -11 2 -7 7 7 12 -29 33 -41 23
-5 -4 -3 1 4 10 11 14 10 16 -7 11 -15 -4 -21 -1 -21 11 0 9 -7 16 -15 16 -8
0 -15 5 -15 10 0 6 -6 10 -14 10 -8 0 -21 9 -29 20 -8 11 -17 17 -20 13 -4 -3
-7 1 -7 11 0 9 -4 14 -10 11 -5 -3 -10 -1 -10 6 0 7 -3 9 -6 6 -4 -4 -15 3
-25 15 -11 11 -19 17 -19 12 0 -5 -5 -1 -11 9 -5 9 -17 17 -25 17 -8 0 -12 4
-9 10 3 5 0 7 -8 4 -8 -3 -17 2 -20 10 -4 9 -12 16 -19 16 -8 0 -20 9 -28 19
-7 11 -17 18 -22 15 -4 -3 -8 0 -8 6 0 7 -7 10 -15 6 -14 -5 -20 6 -15 29 1 5
-2 7 -5 3 -10 -10 -85 29 -85 44 0 6 -3 9 -6 5 -6 -6 -17 1 -55 36 -10 9 -21
17 -24 17 -3 0 -12 0 -20 0 -8 0 -15 7 -15 17 0 9 -3 13 -7 10 -3 -4 -15 1
-26 10 -15 13 -18 14 -12 3 8 -13 6 -13 -8 -1 -9 7 -14 17 -11 22 3 5 -1 6 -9
3 -8 -3 -18 0 -23 7 -5 8 -3 10 6 4 8 -5 11 -4 7 2 -4 6 -18 9 -32 8 -14 -2
-23 1 -19 6 3 5 -2 9 -10 9 -9 0 -16 5 -16 11 0 5 -4 7 -10 4 -5 -3 -10 -1
-10 5 0 6 -4 8 -10 5 -5 -3 -10 1 -10 10 0 9 -5 13 -11 10 -6 -4 -17 1 -24 11
-8 11 -15 15 -15 11 0 -5 -12 1 -26 12 -15 11 -30 19 -34 16 -4 -3 -11 2 -14
11 -4 9 -13 14 -21 10 -9 -3 -15 0 -15 9 0 8 -3 14 -7 13 -5 -1 -23 3 -41 10
-22 7 -31 16 -26 23 5 8 3 9 -5 5 -7 -5 -21 0 -33 11 -12 10 -18 12 -14 5 7
-11 4 -11 -13 0 -12 7 -21 17 -21 21 0 5 -8 7 -17 5 -10 -2 -28 7 -41 19 -24
24 -38 30 -26 12 3 -6 -5 -4 -18 5 -14 9 -28 13 -31 9 -4 -3 -7 1 -7 10 0 11
-7 15 -20 12 -11 -2 -18 0 -15 6 4 5 -1 9 -10 9 -9 0 -13 5 -9 11 5 8 1 8 -13
0 -17 -8 -24 -5 -42 17 -12 15 -21 20 -21 12 0 -10 -5 -8 -16 6 -8 10 -13 14
-10 7 5 -8 0 -8 -19 0 -14 7 -25 15 -25 20 0 4 -7 7 -16 7 -9 0 -12 5 -8 13 5
8 2 8 -9 -2 -12 -9 -17 -10 -17 -2 0 7 -4 9 -10 6 -5 -3 -10 -1 -10 5 0 7 -7
10 -15 6 -8 -3 -15 -1 -15 5 0 6 -7 9 -15 5 -8 -3 -18 2 -23 10 -5 8 -15 16
-23 17 -8 2 -20 6 -27 11 -7 4 -16 5 -19 2 -3 -3 -17 4 -31 14 -13 11 -32 20
-41 20 -9 0 -29 7 -46 16 -16 9 -41 17 -55 19 -14 1 -24 7 -23 13 1 6 -9 9
-25 7 -25 -3 -67 16 -58 26 2 2 -7 5 -20 6 -46 4 -54 6 -54 15 0 5 -4 6 -10 3
-5 -3 -10 0 -10 7 0 9 -3 9 -10 -2 -5 -8 -10 -10 -10 -3 0 6 -18 14 -40 18
-22 4 -42 11 -46 16 -3 5 -16 9 -30 9 -13 0 -24 4 -24 8 0 4 -12 9 -26 10 -15
1 -33 7 -40 12 -8 8 -14 8 -19 1 -4 -7 -16 -3 -34 10 -15 11 -37 21 -49 22
-12 1 -22 4 -22 7 0 6 -12 8 -67 12 -17 2 -29 7 -26 12 4 5 -4 7 -15 4 -12 -4
-22 -2 -22 3 0 4 -7 5 -17 2 -9 -4 -14 -2 -11 3 4 5 -8 10 -25 11 -18 2 -33 7
-35 13 -3 7 -8 8 -16 1 -8 -7 -20 -6 -38 3 -15 8 -29 11 -33 8 -3 -4 -10 0
-15 8 -7 11 -10 12 -10 2 0 -11 -3 -10 -14 1 -9 8 -26 12 -40 10 -18 -4 -26
-1 -26 8 0 11 -2 11 -10 -1 -8 -12 -10 -12 -10 -1 0 8 -3 11 -7 8 -3 -4 -15 1
-26 10 -11 10 -17 12 -13 6 8 -14 -6 -18 -18 -5 -4 4 -11 7 -14 8 -4 0 -27 4
-52 8 -25 4 -55 8 -67 9 -13 1 -23 4 -23 7 0 3 -15 5 -32 5 -18 -1 -40 2 -49
6 -9 5 -21 3 -29 -4 -10 -9 -11 -9 -5 2 5 9 3 12 -6 9 -8 -3 -23 -1 -34 5 -17
9 -61 16 -115 19 -8 1 -18 6 -22 12 -5 7 -8 6 -8 -3 0 -9 -4 -10 -12 -4 -7 6
-23 9 -36 8 -13 -1 -25 2 -28 7 -3 4 -10 8 -15 8 -6 0 -7 -6 -3 -12 6 -10 5
-10 -7 -1 -21 17 -61 23 -76 11 -7 -6 -13 -7 -13 -2 0 10 -28 14 -102 17 -25
1 -44 5 -41 10 2 4 -13 7 -34 8 -21 1 -72 2 -113 3 -41 1 -86 5 -100 9 -41 11
-340 13 -340 3 0 -6 -7 -1 -16 10 -8 10 -13 14 -10 7 8 -15 -116 -15 -126 1
-5 7 -8 7 -8 0z m-4950 -774 c0 -5 -5 -10 -11 -10 -5 0 -7 5 -4 10 3 6 8 10
11 10 2 0 4 -4 4 -10z m63 -1145 c-3 -9 -8 -14 -10 -11 -3 3 -2 9 2 15 9 16
15 13 8 -4z m-1647 -3193 c5 1 9 -15 10 -37 0 -53 -30 -82 -86 -79 -22 1 -40
-2 -40 -7 0 -5 -7 -5 -17 -2 -12 5 -14 3 -8 -7 5 -9 4 -11 -3 -6 -20 12 -52
15 -52 6 0 -5 -7 -7 -15 -4 -8 4 -15 2 -15 -3 0 -5 -18 -9 -39 -8 -22 1 -38
-2 -35 -6 5 -8 -33 -21 -63 -22 -13 -1 -23 -5 -23 -10 0 -5 -7 -6 -16 -3 -8 3
-12 2 -9 -4 3 -6 -4 -10 -17 -10 -14 0 -33 -6 -43 -14 -11 -8 -25 -11 -33 -8
-8 3 -17 -1 -22 -7 -4 -7 -13 -13 -21 -14 -8 -2 -20 -7 -28 -11 -10 -7 -12 -5
-6 5 6 10 3 9 -11 -2 -10 -9 -29 -15 -41 -14 -12 1 -20 -2 -17 -7 3 -4 -6 -8
-20 -8 -14 0 -26 -6 -27 -12 0 -10 -2 -10 -6 0 -3 9 -9 10 -18 2 -9 -8 -17 -4
-29 15 -9 14 -12 25 -7 25 6 0 8 6 5 14 -3 8 0 17 7 22 8 5 10 3 4 -7 -4 -8 9
4 29 26 22 25 36 34 37 25 0 -10 2 -11 6 -2 2 6 11 12 18 12 7 0 15 7 19 15 3
8 11 15 18 15 9 0 8 -3 -2 -10 -22 -14 -6 -12 24 3 14 8 23 16 20 19 -2 3 6 5
18 4 13 0 22 4 21 11 -2 7 7 10 23 7 15 -3 23 -1 20 5 -4 6 2 8 14 6 11 -2 27
3 35 11 12 12 15 12 16 2 0 -8 2 -9 5 -2 3 7 14 10 24 7 11 -3 20 0 20 6 0 5
7 8 15 5 8 -4 15 -1 15 5 0 6 7 8 15 5 9 -4 15 0 15 7 0 11 3 11 10 -1 5 -8
10 -10 10 -4 0 6 12 11 28 12 15 1 41 4 57 7 17 3 37 6 45 7 8 0 21 5 28 11 8
6 12 6 12 -2 0 -7 5 -9 10 -6 6 4 7 12 4 18 -5 9 -4 9 6 0 8 -8 20 -9 36 -3
13 5 24 6 24 3 0 -4 5 -2 12 5 8 8 14 9 19 1 3 -6 10 -9 15 -7z m-765 -5479
c13 -16 12 -17 -3 -4 -10 7 -18 15 -18 17 0 8 8 3 21 -13z"/>
<path d="M1550 8876 c0 -2 8 -10 18 -17 15 -13 16 -12 3 4 -13 16 -21 21 -21
13z"/>
<path d="M811 8691 c-7 -5 -26 -7 -42 -6 -16 1 -32 -1 -35 -6 -3 -5 -10 -7
-15 -4 -5 4 -9 2 -9 -2 0 -5 -17 -8 -37 -8 -21 1 -42 -1 -48 -4 -5 -3 -21 -7
-35 -9 -13 -2 -31 -9 -39 -15 -12 -10 -13 -9 -6 3 7 12 6 13 -6 4 -8 -6 -24
-10 -36 -9 -13 1 -23 -3 -23 -8 0 -6 -3 -8 -6 -4 -3 3 -26 -3 -51 -14 -25 -10
-49 -17 -54 -13 -5 3 -9 0 -9 -6 0 -6 -4 -9 -9 -5 -6 3 -14 -3 -20 -12 -8 -14
-11 -15 -11 -3 0 12 -3 11 -11 -3 -6 -9 -14 -15 -19 -12 -4 3 -11 -2 -14 -11
-4 -10 -2 -13 7 -8 9 6 9 4 -1 -8 -11 -13 -9 -17 15 -23 41 -12 54 -14 93 -17
19 -1 38 -7 43 -12 4 -7 10 -6 17 4 6 9 10 10 10 3 0 -6 8 -12 18 -12 41 -2
62 -6 62 -11 0 -3 12 -6 28 -6 59 -3 102 -9 102 -15 0 -3 10 -5 23 -4 12 1 27
-1 32 -4 6 -4 17 -7 25 -6 8 0 17 -3 20 -7 3 -4 27 -9 53 -10 26 -2 47 -6 47
-10 0 -5 18 -8 39 -8 22 0 43 -5 46 -10 4 -7 12 -7 24 0 10 5 21 7 24 3 4 -3
18 2 33 12 18 11 24 13 19 4 -4 -9 -1 -8 7 1 21 24 70 53 92 54 12 1 20 7 19
12 -1 6 9 10 22 8 14 -1 25 3 25 9 0 7 5 5 10 -3 6 -10 10 -11 10 -2 0 6 6 12
14 12 8 0 17 6 20 13 5 9 7 9 12 -1 3 -6 11 -9 17 -5 7 4 37 8 67 9 30 1 64 5
74 9 15 7 18 5 12 -6 -4 -8 0 -5 8 5 14 18 21 15 17 -7 -1 -4 9 -1 22 8 13 8
27 12 31 8 12 -12 86 -12 87 1 0 6 4 2 9 -9 5 -11 9 -14 9 -7 1 7 5 10 11 7
29 -18 93 -23 96 -7 1 7 0 8 -2 3 -3 -6 -18 -1 -34 11 -16 12 -27 25 -24 29 3
5 -3 6 -12 2 -12 -4 -15 -3 -10 6 4 6 4 10 -1 9 -4 -1 -18 3 -31 10 -12 7 -26
10 -31 7 -5 -3 -15 0 -23 7 -7 7 -20 14 -28 15 -19 2 -57 11 -80 18 -10 3 -36
8 -57 11 -58 8 -68 10 -78 15 -6 3 -22 5 -37 4 -16 0 -28 3 -28 9 0 5 -3 7 -6
4 -3 -3 -26 0 -52 6 -26 7 -73 11 -104 10 -41 -1 -56 1 -52 9 5 9 4 9 -5 1 -6
-6 -33 -8 -66 -4 -36 4 -55 2 -55 -4 0 -6 -5 -4 -10 4 -5 8 -10 10 -10 5 0
-10 -61 -12 -77 -2 -5 3 -15 2 -22 -2z m889 -172 c17 -13 18 -17 5 -10 -33 17
-51 31 -40 31 6 0 21 -10 35 -21z"/>
<path d="M1756 8493 c-6 -14 -5 -15 5 -6 7 7 10 15 7 18 -3 3 -9 -2 -12 -12z"/>
<path d="M1775 8479 c-4 -6 -4 -13 -1 -16 3 -4 6 -1 6 5 0 7 5 12 11 12 5 0 7
-4 4 -10 -3 -5 -1 -18 4 -27 6 -10 11 -12 11 -5 0 6 5 12 11 12 5 0 8 -4 5 -8
-3 -5 1 -9 9 -9 12 0 12 4 -2 19 -13 14 -18 16 -25 6 -6 -8 -7 -5 -3 10 5 16
2 22 -9 22 -8 0 -18 -5 -21 -11z"/>
<path d="M1826 8478 c3 -5 10 -6 15 -3 13 9 11 12 -6 12 -8 0 -12 -4 -9 -9z"/>
<path d="M1873 8445 c0 -8 4 -12 9 -9 5 3 6 10 3 15 -9 13 -12 11 -12 -6z"/>
<path d="M1755 8411 c-3 -5 -2 -12 3 -15 5 -3 9 1 9 9 0 17 -3 19 -12 6z"/>
<path d="M1809 8403 c-13 -16 -12 -17 4 -4 9 7 17 15 17 17 0 8 -8 3 -21 -13z"/>
<path d="M1225 7430 c-3 -5 -1 -10 4 -10 6 0 11 5 11 10 0 6 -2 10 -4 10 -3 0
-8 -4 -11 -10z"/>
</g>
</svg>
